# xmcd CD database file
#
# Track frame offsets:
#	150
#	12185
#	28799
#	49077
#	66552
#	84649
#	98059
#	116895
#	129489
#	146079
#	162674
#
# Disc length: 2369 seconds
#
# Revision: 0
# Processed by: cddbd v1.5.1PL0 Copyright (c) Steve Scherf et al.
# Submitted via: CD2WAV32(EN) R3.19
#
DISCID=9f093f0b
DTITLE=LeAnn Rimes - What a Wonderful World
DYEAR=1900
DGENRE=
TTITLE0=Rockin' Around the Christmas Tree
TTITLE1=A Different Kind of Christmas
TTITLE2=White Christmas
TTITLE3=All I Want For Christmas
TTITLE4=Have Yourself a Merry Little Christmas
TTITLE5=What a Wonderful World
TTITLE6=The Christmas Song
TTITLE7=Just Love Me
TTITLE8=Miss You Like Christmas
TTITLE9=O Holy Night
TTITLE10=Santa Baby
EXTD=
EXTT0=
EXTT1=
EXTT2=
EXTT3=
EXTT4=
EXTT5=
EXTT6=
EXTT7=
EXTT8=
EXTT9=
EXTT10=
PLAYORDER=
